<mxfile host="app.diagrams.net" agent="Mozilla/5.0 (Windows NT 10.0; Win64; x64) AppleWebKit/537.36 (KHTML, like Gecko) Chrome/139.0.0.0 Safari/537.36" version="28.2.0">
  <diagram name="PÃ¡gina-1" id="SFT6SZEZTzJeM5I4jLqb">
    <mxGraphModel dx="695" dy="375" grid="1" gridSize="10" guides="1" tooltips="1" connect="1" arrows="1" fold="1" page="1" pageScale="1" pageWidth="827" pageHeight="1169" math="0" shadow="0">
      <root>
        <mxCell id="0" />
        <mxCell id="1" parent="0" />
        <mxCell id="6maMMwceacY6JCe66Eoi-1" value="DER - Escola" style="text;html=1;align=center;verticalAlign=middle;resizable=0;points=[];autosize=1;strokeWidth=1;perimeterSpacing=1;arcSize=27;fontSize=20;labelBackgroundColor=none;fontColor=#143642;" vertex="1" parent="1">
          <mxGeometry x="714" y="150" width="140" height="40" as="geometry" />
        </mxCell>
        <mxCell id="6maMMwceacY6JCe66Eoi-2" value="" style="edgeStyle=orthogonalEdgeStyle;rounded=0;orthogonalLoop=1;jettySize=auto;html=1;labelBackgroundColor=none;strokeColor=#A8201A;fontColor=default;" edge="1" parent="1" source="6maMMwceacY6JCe66Eoi-7" target="6maMMwceacY6JCe66Eoi-26">
          <mxGeometry relative="1" as="geometry" />
        </mxCell>
        <mxCell id="6maMMwceacY6JCe66Eoi-3" value="" style="edgeStyle=orthogonalEdgeStyle;rounded=0;orthogonalLoop=1;jettySize=auto;html=1;labelBackgroundColor=none;strokeColor=#A8201A;fontColor=default;" edge="1" parent="1" source="6maMMwceacY6JCe66Eoi-7" target="6maMMwceacY6JCe66Eoi-28">
          <mxGeometry relative="1" as="geometry" />
        </mxCell>
        <mxCell id="6maMMwceacY6JCe66Eoi-4" style="edgeStyle=orthogonalEdgeStyle;rounded=0;orthogonalLoop=1;jettySize=auto;html=1;exitX=0.75;exitY=0;exitDx=0;exitDy=0;entryX=0;entryY=1;entryDx=0;entryDy=0;labelBackgroundColor=none;strokeColor=#A8201A;fontColor=default;" edge="1" parent="1" source="6maMMwceacY6JCe66Eoi-7" target="6maMMwceacY6JCe66Eoi-30">
          <mxGeometry relative="1" as="geometry" />
        </mxCell>
        <mxCell id="6maMMwceacY6JCe66Eoi-5" style="edgeStyle=orthogonalEdgeStyle;rounded=0;orthogonalLoop=1;jettySize=auto;html=1;exitX=0.25;exitY=0;exitDx=0;exitDy=0;entryX=0.5;entryY=1;entryDx=0;entryDy=0;labelBackgroundColor=none;strokeColor=#A8201A;fontColor=default;" edge="1" parent="1" source="6maMMwceacY6JCe66Eoi-7" target="6maMMwceacY6JCe66Eoi-29">
          <mxGeometry relative="1" as="geometry" />
        </mxCell>
        <mxCell id="6maMMwceacY6JCe66Eoi-6" style="edgeStyle=orthogonalEdgeStyle;rounded=0;orthogonalLoop=1;jettySize=auto;html=1;exitX=0;exitY=0.5;exitDx=0;exitDy=0;entryX=0.5;entryY=0;entryDx=0;entryDy=0;labelBackgroundColor=none;strokeColor=#A8201A;fontColor=default;" edge="1" parent="1" source="6maMMwceacY6JCe66Eoi-7" target="6maMMwceacY6JCe66Eoi-31">
          <mxGeometry relative="1" as="geometry" />
        </mxCell>
        <mxCell id="6maMMwceacY6JCe66Eoi-7" value="&lt;b&gt;Escola&lt;/b&gt;" style="fontColor=#143642;html=1;whiteSpace=wrap;fillColor=#FAE5C7;labelBackgroundColor=none;strokeColor=#0F8B8D;" vertex="1" parent="1">
          <mxGeometry x="450" y="305" width="120" height="60" as="geometry" />
        </mxCell>
        <mxCell id="6maMMwceacY6JCe66Eoi-8" value="" style="edgeStyle=orthogonalEdgeStyle;rounded=0;orthogonalLoop=1;jettySize=auto;html=1;labelBackgroundColor=none;strokeColor=#A8201A;fontColor=default;" edge="1" parent="1" source="6maMMwceacY6JCe66Eoi-14" target="6maMMwceacY6JCe66Eoi-33">
          <mxGeometry relative="1" as="geometry" />
        </mxCell>
        <mxCell id="6maMMwceacY6JCe66Eoi-9" value="" style="edgeStyle=orthogonalEdgeStyle;rounded=0;orthogonalLoop=1;jettySize=auto;html=1;labelBackgroundColor=none;strokeColor=#A8201A;fontColor=default;" edge="1" parent="1" source="6maMMwceacY6JCe66Eoi-14" target="6maMMwceacY6JCe66Eoi-34">
          <mxGeometry relative="1" as="geometry" />
        </mxCell>
        <mxCell id="6maMMwceacY6JCe66Eoi-10" style="edgeStyle=orthogonalEdgeStyle;rounded=0;orthogonalLoop=1;jettySize=auto;html=1;exitX=1;exitY=0;exitDx=0;exitDy=0;entryX=0;entryY=1;entryDx=0;entryDy=0;labelBackgroundColor=none;strokeColor=#A8201A;fontColor=default;" edge="1" parent="1" source="6maMMwceacY6JCe66Eoi-14" target="6maMMwceacY6JCe66Eoi-36">
          <mxGeometry relative="1" as="geometry" />
        </mxCell>
        <mxCell id="6maMMwceacY6JCe66Eoi-11" style="edgeStyle=orthogonalEdgeStyle;rounded=0;orthogonalLoop=1;jettySize=auto;html=1;exitX=1;exitY=0.75;exitDx=0;exitDy=0;entryX=0.5;entryY=0;entryDx=0;entryDy=0;labelBackgroundColor=none;strokeColor=#A8201A;fontColor=default;" edge="1" parent="1" source="6maMMwceacY6JCe66Eoi-14" target="6maMMwceacY6JCe66Eoi-35">
          <mxGeometry relative="1" as="geometry" />
        </mxCell>
        <mxCell id="6maMMwceacY6JCe66Eoi-12" style="edgeStyle=orthogonalEdgeStyle;rounded=0;orthogonalLoop=1;jettySize=auto;html=1;exitX=0.75;exitY=1;exitDx=0;exitDy=0;entryX=0;entryY=0.5;entryDx=0;entryDy=0;labelBackgroundColor=none;strokeColor=#A8201A;fontColor=default;" edge="1" parent="1" source="6maMMwceacY6JCe66Eoi-14" target="6maMMwceacY6JCe66Eoi-37">
          <mxGeometry relative="1" as="geometry" />
        </mxCell>
        <mxCell id="6maMMwceacY6JCe66Eoi-13" style="edgeStyle=orthogonalEdgeStyle;rounded=0;orthogonalLoop=1;jettySize=auto;html=1;exitX=0;exitY=1;exitDx=0;exitDy=0;entryX=1;entryY=0;entryDx=0;entryDy=0;labelBackgroundColor=none;strokeColor=#A8201A;fontColor=default;" edge="1" parent="1" source="6maMMwceacY6JCe66Eoi-14" target="6maMMwceacY6JCe66Eoi-47">
          <mxGeometry relative="1" as="geometry" />
        </mxCell>
        <mxCell id="6maMMwceacY6JCe66Eoi-14" value="&lt;b&gt;Aluno&lt;/b&gt;" style="fontColor=#143642;html=1;whiteSpace=wrap;fillColor=#FAE5C7;labelBackgroundColor=none;strokeColor=#0F8B8D;" vertex="1" parent="1">
          <mxGeometry x="870" y="305" width="120" height="60" as="geometry" />
        </mxCell>
        <mxCell id="6maMMwceacY6JCe66Eoi-15" style="edgeStyle=orthogonalEdgeStyle;rounded=0;orthogonalLoop=1;jettySize=auto;html=1;exitX=0.25;exitY=1;exitDx=0;exitDy=0;entryX=1;entryY=0;entryDx=0;entryDy=0;labelBackgroundColor=none;strokeColor=#A8201A;fontColor=default;" edge="1" parent="1" source="6maMMwceacY6JCe66Eoi-19" target="6maMMwceacY6JCe66Eoi-42">
          <mxGeometry relative="1" as="geometry" />
        </mxCell>
        <mxCell id="6maMMwceacY6JCe66Eoi-16" style="edgeStyle=orthogonalEdgeStyle;rounded=0;orthogonalLoop=1;jettySize=auto;html=1;exitX=0;exitY=0.5;exitDx=0;exitDy=0;entryX=0.5;entryY=1;entryDx=0;entryDy=0;labelBackgroundColor=none;strokeColor=#A8201A;fontColor=default;" edge="1" parent="1" source="6maMMwceacY6JCe66Eoi-19" target="6maMMwceacY6JCe66Eoi-44">
          <mxGeometry relative="1" as="geometry" />
        </mxCell>
        <mxCell id="6maMMwceacY6JCe66Eoi-17" value="" style="edgeStyle=orthogonalEdgeStyle;rounded=0;orthogonalLoop=1;jettySize=auto;html=1;labelBackgroundColor=none;strokeColor=#A8201A;fontColor=default;" edge="1" parent="1" source="6maMMwceacY6JCe66Eoi-19" target="6maMMwceacY6JCe66Eoi-43">
          <mxGeometry relative="1" as="geometry" />
        </mxCell>
        <mxCell id="6maMMwceacY6JCe66Eoi-18" value="" style="edgeStyle=orthogonalEdgeStyle;rounded=0;orthogonalLoop=1;jettySize=auto;html=1;labelBackgroundColor=none;strokeColor=#A8201A;fontColor=default;" edge="1" parent="1" source="6maMMwceacY6JCe66Eoi-19" target="6maMMwceacY6JCe66Eoi-45">
          <mxGeometry relative="1" as="geometry" />
        </mxCell>
        <mxCell id="6maMMwceacY6JCe66Eoi-19" value="&lt;b&gt;Turma&lt;/b&gt;" style="fontColor=#143642;html=1;whiteSpace=wrap;fillColor=#FAE5C7;labelBackgroundColor=none;strokeColor=#0F8B8D;" vertex="1" parent="1">
          <mxGeometry x="450" y="585" width="120" height="60" as="geometry" />
        </mxCell>
        <mxCell id="6maMMwceacY6JCe66Eoi-20" style="edgeStyle=orthogonalEdgeStyle;rounded=0;orthogonalLoop=1;jettySize=auto;html=1;exitX=0.25;exitY=1;exitDx=0;exitDy=0;entryX=0.5;entryY=0;entryDx=0;entryDy=0;labelBackgroundColor=none;strokeColor=#A8201A;fontColor=default;" edge="1" parent="1" source="6maMMwceacY6JCe66Eoi-24" target="6maMMwceacY6JCe66Eoi-41">
          <mxGeometry relative="1" as="geometry" />
        </mxCell>
        <mxCell id="6maMMwceacY6JCe66Eoi-21" style="edgeStyle=orthogonalEdgeStyle;rounded=0;orthogonalLoop=1;jettySize=auto;html=1;exitX=0.75;exitY=1;exitDx=0;exitDy=0;entryX=0;entryY=0;entryDx=0;entryDy=0;labelBackgroundColor=none;strokeColor=#A8201A;fontColor=default;" edge="1" parent="1" source="6maMMwceacY6JCe66Eoi-24" target="6maMMwceacY6JCe66Eoi-40">
          <mxGeometry relative="1" as="geometry" />
        </mxCell>
        <mxCell id="6maMMwceacY6JCe66Eoi-22" style="edgeStyle=orthogonalEdgeStyle;rounded=0;orthogonalLoop=1;jettySize=auto;html=1;exitX=1;exitY=0.75;exitDx=0;exitDy=0;entryX=0;entryY=0.5;entryDx=0;entryDy=0;labelBackgroundColor=none;strokeColor=#A8201A;fontColor=default;" edge="1" parent="1" source="6maMMwceacY6JCe66Eoi-24" target="6maMMwceacY6JCe66Eoi-39">
          <mxGeometry relative="1" as="geometry" />
        </mxCell>
        <mxCell id="6maMMwceacY6JCe66Eoi-23" style="edgeStyle=orthogonalEdgeStyle;rounded=0;orthogonalLoop=1;jettySize=auto;html=1;exitX=1;exitY=0.25;exitDx=0;exitDy=0;entryX=0;entryY=0;entryDx=0;entryDy=0;labelBackgroundColor=none;strokeColor=#A8201A;fontColor=default;" edge="1" parent="1" source="6maMMwceacY6JCe66Eoi-24" target="6maMMwceacY6JCe66Eoi-38">
          <mxGeometry relative="1" as="geometry" />
        </mxCell>
        <mxCell id="6maMMwceacY6JCe66Eoi-24" value="&lt;b&gt;Prova&lt;/b&gt;" style="fontColor=#143642;html=1;whiteSpace=wrap;fillColor=#FAE5C7;labelBackgroundColor=none;strokeColor=#0F8B8D;" vertex="1" parent="1">
          <mxGeometry x="870" y="585" width="120" height="60" as="geometry" />
        </mxCell>
        <mxCell id="6maMMwceacY6JCe66Eoi-25" value="" style="edgeStyle=orthogonalEdgeStyle;rounded=0;orthogonalLoop=1;jettySize=auto;html=1;labelBackgroundColor=none;strokeColor=#A8201A;fontColor=default;" edge="1" parent="1" source="6maMMwceacY6JCe66Eoi-26" target="6maMMwceacY6JCe66Eoi-14">
          <mxGeometry relative="1" as="geometry" />
        </mxCell>
        <mxCell id="6maMMwceacY6JCe66Eoi-26" value="ContÃ©m" style="rhombus;whiteSpace=wrap;html=1;labelBackgroundColor=none;fillColor=#FAE5C7;strokeColor=#0F8B8D;fontColor=#143642;" vertex="1" parent="1">
          <mxGeometry x="680" y="295" width="80" height="80" as="geometry" />
        </mxCell>
        <mxCell id="6maMMwceacY6JCe66Eoi-27" value="" style="edgeStyle=orthogonalEdgeStyle;rounded=0;orthogonalLoop=1;jettySize=auto;html=1;labelBackgroundColor=none;strokeColor=#A8201A;fontColor=default;" edge="1" parent="1" source="6maMMwceacY6JCe66Eoi-28" target="6maMMwceacY6JCe66Eoi-19">
          <mxGeometry relative="1" as="geometry" />
        </mxCell>
        <mxCell id="6maMMwceacY6JCe66Eoi-28" value="ContÃ©m" style="rhombus;whiteSpace=wrap;html=1;labelBackgroundColor=none;fillColor=#FAE5C7;strokeColor=#0F8B8D;fontColor=#143642;" vertex="1" parent="1">
          <mxGeometry x="470" y="435" width="80" height="80" as="geometry" />
        </mxCell>
        <mxCell id="6maMMwceacY6JCe66Eoi-29" value="Nome" style="ellipse;whiteSpace=wrap;html=1;labelBackgroundColor=none;fillColor=#FAE5C7;strokeColor=#0F8B8D;fontColor=#143642;" vertex="1" parent="1">
          <mxGeometry x="400" y="225" width="80" height="40" as="geometry" />
        </mxCell>
        <mxCell id="6maMMwceacY6JCe66Eoi-30" value="PerÃ­odo" style="ellipse;whiteSpace=wrap;html=1;labelBackgroundColor=none;fillColor=#FAE5C7;strokeColor=#0F8B8D;fontColor=#143642;" vertex="1" parent="1">
          <mxGeometry x="550" y="235" width="80" height="40" as="geometry" />
        </mxCell>
        <mxCell id="6maMMwceacY6JCe66Eoi-31" value="EndereÃ§o" style="ellipse;whiteSpace=wrap;html=1;labelBackgroundColor=none;fillColor=#FAE5C7;strokeColor=#0F8B8D;fontColor=#143642;" vertex="1" parent="1">
          <mxGeometry x="380" y="375" width="80" height="40" as="geometry" />
        </mxCell>
        <mxCell id="6maMMwceacY6JCe66Eoi-32" value="" style="edgeStyle=orthogonalEdgeStyle;rounded=0;orthogonalLoop=1;jettySize=auto;html=1;labelBackgroundColor=none;strokeColor=#A8201A;fontColor=default;" edge="1" parent="1" source="6maMMwceacY6JCe66Eoi-33" target="6maMMwceacY6JCe66Eoi-24">
          <mxGeometry relative="1" as="geometry" />
        </mxCell>
        <mxCell id="6maMMwceacY6JCe66Eoi-33" value="Realiza" style="rhombus;whiteSpace=wrap;html=1;labelBackgroundColor=none;fillColor=#FAE5C7;strokeColor=#0F8B8D;fontColor=#143642;" vertex="1" parent="1">
          <mxGeometry x="890" y="435" width="80" height="80" as="geometry" />
        </mxCell>
        <mxCell id="6maMMwceacY6JCe66Eoi-34" value="Nome" style="ellipse;whiteSpace=wrap;html=1;labelBackgroundColor=none;fillColor=#FAE5C7;strokeColor=#0F8B8D;fontColor=#143642;" vertex="1" parent="1">
          <mxGeometry x="880" y="230" width="80" height="30" as="geometry" />
        </mxCell>
        <mxCell id="6maMMwceacY6JCe66Eoi-35" value="RA" style="ellipse;whiteSpace=wrap;html=1;labelBackgroundColor=none;fillColor=#FAE5C7;strokeColor=#0F8B8D;fontColor=#143642;" vertex="1" parent="1">
          <mxGeometry x="1050" y="345" width="80" height="30" as="geometry" />
        </mxCell>
        <mxCell id="6maMMwceacY6JCe66Eoi-36" value="EndereÃ§o" style="ellipse;whiteSpace=wrap;html=1;labelBackgroundColor=none;fillColor=#FAE5C7;strokeColor=#0F8B8D;fontColor=#143642;" vertex="1" parent="1">
          <mxGeometry x="1010" y="235" width="80" height="30" as="geometry" />
        </mxCell>
        <mxCell id="6maMMwceacY6JCe66Eoi-37" value="Idade" style="ellipse;whiteSpace=wrap;html=1;labelBackgroundColor=none;fillColor=#FAE5C7;strokeColor=#0F8B8D;fontColor=#143642;" vertex="1" parent="1">
          <mxGeometry x="1000" y="395" width="80" height="30" as="geometry" />
        </mxCell>
        <mxCell id="6maMMwceacY6JCe66Eoi-38" value="DuraÃ§Ã£o" style="ellipse;whiteSpace=wrap;html=1;labelBackgroundColor=none;fillColor=#FAE5C7;strokeColor=#0F8B8D;fontColor=#143642;" vertex="1" parent="1">
          <mxGeometry x="1040" y="585" width="80" height="30" as="geometry" />
        </mxCell>
        <mxCell id="6maMMwceacY6JCe66Eoi-39" value="MatÃ©ria" style="ellipse;whiteSpace=wrap;html=1;labelBackgroundColor=none;fillColor=#FAE5C7;strokeColor=#0F8B8D;fontColor=#143642;" vertex="1" parent="1">
          <mxGeometry x="1040" y="635" width="80" height="30" as="geometry" />
        </mxCell>
        <mxCell id="6maMMwceacY6JCe66Eoi-40" value="Data" style="ellipse;whiteSpace=wrap;html=1;labelBackgroundColor=none;fillColor=#FAE5C7;strokeColor=#0F8B8D;fontColor=#143642;" vertex="1" parent="1">
          <mxGeometry x="970" y="685" width="80" height="30" as="geometry" />
        </mxCell>
        <mxCell id="6maMMwceacY6JCe66Eoi-41" value="Nota" style="ellipse;whiteSpace=wrap;html=1;labelBackgroundColor=none;fillColor=#FAE5C7;strokeColor=#0F8B8D;fontColor=#143642;" vertex="1" parent="1">
          <mxGeometry x="840" y="690" width="80" height="30" as="geometry" />
        </mxCell>
        <mxCell id="6maMMwceacY6JCe66Eoi-42" value="Serie" style="ellipse;whiteSpace=wrap;html=1;labelBackgroundColor=none;fillColor=#FAE5C7;strokeColor=#0F8B8D;fontColor=#143642;" vertex="1" parent="1">
          <mxGeometry x="380" y="675" width="80" height="40" as="geometry" />
        </mxCell>
        <mxCell id="6maMMwceacY6JCe66Eoi-43" value="perÃ­odoTurma" style="ellipse;whiteSpace=wrap;html=1;labelBackgroundColor=none;fillColor=#FAE5C7;strokeColor=#0F8B8D;fontColor=#143642;" vertex="1" parent="1">
          <mxGeometry x="480" y="705" width="80" height="40" as="geometry" />
        </mxCell>
        <mxCell id="6maMMwceacY6JCe66Eoi-44" value="NumeraÃ§Ã£o" style="ellipse;whiteSpace=wrap;html=1;labelBackgroundColor=none;fillColor=#FAE5C7;strokeColor=#0F8B8D;fontColor=#143642;" vertex="1" parent="1">
          <mxGeometry x="370" y="575" width="70" height="40" as="geometry" />
        </mxCell>
        <mxCell id="6maMMwceacY6JCe66Eoi-45" value="NomeTurma" style="ellipse;whiteSpace=wrap;html=1;labelBackgroundColor=none;fillColor=#FAE5C7;strokeColor=#0F8B8D;fontColor=#143642;" vertex="1" parent="1">
          <mxGeometry x="600" y="640" width="80" height="50" as="geometry" />
        </mxCell>
        <mxCell id="6maMMwceacY6JCe66Eoi-46" style="edgeStyle=orthogonalEdgeStyle;rounded=0;orthogonalLoop=1;jettySize=auto;html=1;exitX=0;exitY=1;exitDx=0;exitDy=0;entryX=0.75;entryY=0;entryDx=0;entryDy=0;labelBackgroundColor=none;strokeColor=#A8201A;fontColor=default;" edge="1" parent="1" source="6maMMwceacY6JCe66Eoi-47" target="6maMMwceacY6JCe66Eoi-19">
          <mxGeometry relative="1" as="geometry" />
        </mxCell>
        <mxCell id="6maMMwceacY6JCe66Eoi-47" value="Estuda" style="rhombus;whiteSpace=wrap;html=1;labelBackgroundColor=none;fillColor=#FAE5C7;strokeColor=#0F8B8D;fontColor=#143642;" vertex="1" parent="1">
          <mxGeometry x="670" y="485" width="80" height="80" as="geometry" />
        </mxCell>
        <mxCell id="6maMMwceacY6JCe66Eoi-48" value="Cardinalidade" style="text;html=1;align=center;verticalAlign=middle;resizable=0;points=[];autosize=1;strokeWidth=1;perimeterSpacing=1;arcSize=27;fontSize=20;fillColor=#FAE5C7;fontColor=#143642;strokeColor=#0F8B8D;labelBackgroundColor=none;" vertex="1" parent="1">
          <mxGeometry x="665" y="885" width="150" height="40" as="geometry" />
        </mxCell>
        <mxCell id="6maMMwceacY6JCe66Eoi-49" value="1 : 1 - um pra um" style="text;html=1;align=center;verticalAlign=middle;resizable=0;points=[];autosize=1;strokeWidth=1;perimeterSpacing=1;arcSize=27;fontSize=20;fillColor=#FAE5C7;fontColor=#143642;strokeColor=#0F8B8D;labelBackgroundColor=none;" vertex="1" parent="1">
          <mxGeometry x="475" y="985" width="180" height="40" as="geometry" />
        </mxCell>
        <mxCell id="6maMMwceacY6JCe66Eoi-50" value="" style="edgeStyle=orthogonalEdgeStyle;rounded=0;orthogonalLoop=1;jettySize=auto;html=1;strokeColor=#A8201A;fontColor=#143642;fillColor=#FAE5C7;endArrow=none;endFill=0;" edge="1" parent="1" source="6maMMwceacY6JCe66Eoi-52" target="6maMMwceacY6JCe66Eoi-55">
          <mxGeometry relative="1" as="geometry" />
        </mxCell>
        <mxCell id="6maMMwceacY6JCe66Eoi-51" value="1" style="edgeLabel;html=1;align=center;verticalAlign=middle;resizable=0;points=[];strokeColor=#0F8B8D;fontColor=#143642;fillColor=#FAE5C7;" connectable="0" vertex="1" parent="6maMMwceacY6JCe66Eoi-50">
          <mxGeometry x="-0.005" y="-2" relative="1" as="geometry">
            <mxPoint as="offset" />
          </mxGeometry>
        </mxCell>
        <mxCell id="6maMMwceacY6JCe66Eoi-52" value="Pessoal" style="whiteSpace=wrap;html=1;strokeColor=#0F8B8D;fontColor=#143642;fillColor=#FAE5C7;labelBackgroundColor=none;" vertex="1" parent="1">
          <mxGeometry x="475" y="1145" width="120" height="60" as="geometry" />
        </mxCell>
        <mxCell id="6maMMwceacY6JCe66Eoi-53" value="" style="edgeStyle=orthogonalEdgeStyle;rounded=0;orthogonalLoop=1;jettySize=auto;html=1;strokeColor=#A8201A;fontColor=#143642;fillColor=#FAE5C7;endArrow=none;endFill=0;" edge="1" parent="1" source="6maMMwceacY6JCe66Eoi-55" target="6maMMwceacY6JCe66Eoi-56">
          <mxGeometry relative="1" as="geometry" />
        </mxCell>
        <mxCell id="6maMMwceacY6JCe66Eoi-54" value="1" style="edgeLabel;html=1;align=center;verticalAlign=middle;resizable=0;points=[];strokeColor=#0F8B8D;fontColor=#143642;fillColor=#FAE5C7;" connectable="0" vertex="1" parent="6maMMwceacY6JCe66Eoi-53">
          <mxGeometry x="-0.101" y="-2" relative="1" as="geometry">
            <mxPoint as="offset" />
          </mxGeometry>
        </mxCell>
        <mxCell id="6maMMwceacY6JCe66Eoi-55" value="Tem" style="rhombus;whiteSpace=wrap;html=1;fillColor=#FAE5C7;strokeColor=#0F8B8D;fontColor=#143642;labelBackgroundColor=none;" vertex="1" parent="1">
          <mxGeometry x="680" y="1135" width="80" height="80" as="geometry" />
        </mxCell>
        <mxCell id="6maMMwceacY6JCe66Eoi-56" value="CPF" style="whiteSpace=wrap;html=1;fillColor=#FAE5C7;strokeColor=#0F8B8D;fontColor=#143642;labelBackgroundColor=none;" vertex="1" parent="1">
          <mxGeometry x="835" y="1145" width="120" height="60" as="geometry" />
        </mxCell>
        <mxCell id="6maMMwceacY6JCe66Eoi-57" value="cada pessoa tem um CPF&lt;div&gt;&lt;br&gt;&lt;/div&gt;" style="text;html=1;align=center;verticalAlign=middle;resizable=0;points=[];autosize=1;strokeColor=none;fillColor=none;fontColor=#143642;" vertex="1" parent="1">
          <mxGeometry x="640" y="1065" width="160" height="40" as="geometry" />
        </mxCell>
        <mxCell id="6maMMwceacY6JCe66Eoi-58" value="" style="endArrow=classic;html=1;rounded=0;strokeColor=#A8201A;fontColor=#143642;fillColor=#FAE5C7;" edge="1" parent="1">
          <mxGeometry width="50" height="50" relative="1" as="geometry">
            <mxPoint x="662.5" y="1115" as="sourcePoint" />
            <mxPoint x="777.5" y="1115" as="targetPoint" />
          </mxGeometry>
        </mxCell>
        <mxCell id="6maMMwceacY6JCe66Eoi-59" value="" style="edgeLabel;html=1;align=center;verticalAlign=middle;resizable=0;points=[];strokeColor=#0F8B8D;fontColor=#143642;fillColor=#FAE5C7;" connectable="0" vertex="1" parent="6maMMwceacY6JCe66Eoi-58">
          <mxGeometry x="-0.5128" y="1" relative="1" as="geometry">
            <mxPoint as="offset" />
          </mxGeometry>
        </mxCell>
        <mxCell id="6maMMwceacY6JCe66Eoi-60" value="" style="endArrow=classic;html=1;rounded=0;strokeColor=#A8201A;fontColor=#143642;fillColor=#FAE5C7;" edge="1" parent="1">
          <mxGeometry width="50" height="50" relative="1" as="geometry">
            <mxPoint x="780" y="1245" as="sourcePoint" />
            <mxPoint x="660" y="1245" as="targetPoint" />
          </mxGeometry>
        </mxCell>
        <mxCell id="6maMMwceacY6JCe66Eoi-61" value="" style="edgeLabel;html=1;align=center;verticalAlign=middle;resizable=0;points=[];strokeColor=#0F8B8D;fontColor=#143642;fillColor=#FAE5C7;" connectable="0" vertex="1" parent="6maMMwceacY6JCe66Eoi-60">
          <mxGeometry x="-0.5128" y="1" relative="1" as="geometry">
            <mxPoint as="offset" />
          </mxGeometry>
        </mxCell>
        <mxCell id="6maMMwceacY6JCe66Eoi-62" value="cada CPF pertence a uma pessoa" style="text;html=1;align=center;verticalAlign=middle;resizable=0;points=[];autosize=1;strokeColor=none;fillColor=none;fontColor=#143642;" vertex="1" parent="1">
          <mxGeometry x="605" y="1264" width="210" height="30" as="geometry" />
        </mxCell>
        <mxCell id="6maMMwceacY6JCe66Eoi-63" value="1 : N - um pra muitos" style="text;html=1;align=center;verticalAlign=middle;resizable=0;points=[];autosize=1;strokeWidth=1;perimeterSpacing=1;arcSize=27;fontSize=20;fillColor=#FAE5C7;fontColor=#143642;strokeColor=#0F8B8D;labelBackgroundColor=none;" vertex="1" parent="1">
          <mxGeometry x="460" y="1345" width="210" height="40" as="geometry" />
        </mxCell>
        <mxCell id="6maMMwceacY6JCe66Eoi-64" value="" style="edgeStyle=orthogonalEdgeStyle;rounded=0;orthogonalLoop=1;jettySize=auto;html=1;strokeColor=#A8201A;fontColor=#143642;fillColor=#FAE5C7;endArrow=none;endFill=0;" edge="1" parent="1" source="6maMMwceacY6JCe66Eoi-65" target="6maMMwceacY6JCe66Eoi-67">
          <mxGeometry relative="1" as="geometry" />
        </mxCell>
        <mxCell id="6maMMwceacY6JCe66Eoi-65" value="Professor" style="whiteSpace=wrap;html=1;strokeColor=#0F8B8D;fontColor=#143642;fillColor=#FAE5C7;labelBackgroundColor=none;" vertex="1" parent="1">
          <mxGeometry x="475" y="1485" width="120" height="60" as="geometry" />
        </mxCell>
        <mxCell id="6maMMwceacY6JCe66Eoi-66" value="" style="edgeStyle=orthogonalEdgeStyle;rounded=0;orthogonalLoop=1;jettySize=auto;html=1;strokeColor=#A8201A;fontColor=#143642;fillColor=#FAE5C7;endArrow=none;endFill=0;" edge="1" parent="1" source="6maMMwceacY6JCe66Eoi-67" target="6maMMwceacY6JCe66Eoi-68">
          <mxGeometry relative="1" as="geometry" />
        </mxCell>
        <mxCell id="6maMMwceacY6JCe66Eoi-67" value="&lt;font style=&quot;vertical-align: inherit;&quot; dir=&quot;auto&quot;&gt;&lt;font style=&quot;vertical-align: inherit;&quot; dir=&quot;auto&quot;&gt;&lt;font style=&quot;vertical-align: inherit;&quot; dir=&quot;auto&quot;&gt;&lt;font style=&quot;vertical-align: inherit;&quot; dir=&quot;auto&quot;&gt;selecione&lt;/font&gt;&lt;/font&gt;&lt;/font&gt;&lt;/font&gt;" style="rhombus;whiteSpace=wrap;html=1;fillColor=#FAE5C7;strokeColor=#0F8B8D;fontColor=#143642;labelBackgroundColor=none;" vertex="1" parent="1">
          <mxGeometry x="680" y="1478" width="80" height="80" as="geometry" />
        </mxCell>
        <mxCell id="6maMMwceacY6JCe66Eoi-68" value="Turmas" style="whiteSpace=wrap;html=1;fillColor=#FAE5C7;strokeColor=#0F8B8D;fontColor=#143642;labelBackgroundColor=none;" vertex="1" parent="1">
          <mxGeometry x="830" y="1485" width="120" height="60" as="geometry" />
        </mxCell>
        <mxCell id="6maMMwceacY6JCe66Eoi-69" value="Significa:Â  UM registro de uma tabela se relaciona com no maximo um registro da outra" style="text;align=left;verticalAlign=middle;resizable=1;points=[];autosize=1;strokeColor=none;fillColor=none;fontColor=#143642;convertToSvg=0;fontSize=12;movable=1;rotatable=1;deletable=1;editable=1;locked=0;connectable=1;html=1;spacing=2;" vertex="1" parent="1">
          <mxGeometry x="775" y="1015" width="490" height="30" as="geometry" />
        </mxCell>
        <mxCell id="6maMMwceacY6JCe66Eoi-70" value="&lt;font style=&quot;vertical-align: inherit;&quot; dir=&quot;auto&quot;&gt;&lt;font style=&quot;vertical-align: inherit;&quot; dir=&quot;auto&quot;&gt;N&lt;/font&gt;&lt;/font&gt;" style="text;html=1;align=center;verticalAlign=middle;resizable=0;points=[];autosize=1;strokeColor=none;fillColor=none;" vertex="1" parent="1">
          <mxGeometry x="795" y="1478" width="30" height="30" as="geometry" />
        </mxCell>
        <mxCell id="6maMMwceacY6JCe66Eoi-71" value="&lt;font style=&quot;vertical-align: inherit;&quot; dir=&quot;auto&quot;&gt;&lt;font style=&quot;vertical-align: inherit;&quot; dir=&quot;auto&quot;&gt;1&lt;/font&gt;&lt;/font&gt;" style="text;html=1;align=center;verticalAlign=middle;resizable=0;points=[];autosize=1;strokeColor=none;fillColor=none;" vertex="1" parent="1">
          <mxGeometry x="595" y="1478" width="30" height="30" as="geometry" />
        </mxCell>
        <mxCell id="6maMMwceacY6JCe66Eoi-72" value="&lt;font style=&quot;vertical-align: inherit;&quot; dir=&quot;auto&quot;&gt;&lt;font style=&quot;vertical-align: inherit;&quot; dir=&quot;auto&quot;&gt;&lt;font style=&quot;vertical-align: inherit;&quot; dir=&quot;auto&quot;&gt;&lt;font style=&quot;vertical-align: inherit;&quot; dir=&quot;auto&quot;&gt;um professor seleciona para diversas turmas&lt;/font&gt;&lt;/font&gt;&lt;/font&gt;&lt;/font&gt;" style="text;html=1;align=center;verticalAlign=middle;resizable=0;points=[];autosize=1;strokeColor=none;fillColor=none;" vertex="1" parent="1">
          <mxGeometry x="590" y="1428" width="260" height="30" as="geometry" />
        </mxCell>
        <mxCell id="6maMMwceacY6JCe66Eoi-73" value="" style="endArrow=classic;html=1;rounded=0;" edge="1" parent="1">
          <mxGeometry width="50" height="50" relative="1" as="geometry">
            <mxPoint x="670" y="1470" as="sourcePoint" />
            <mxPoint x="760" y="1470" as="targetPoint" />
          </mxGeometry>
        </mxCell>
        <mxCell id="6maMMwceacY6JCe66Eoi-74" value="" style="endArrow=classic;html=1;rounded=0;" edge="1" parent="1">
          <mxGeometry width="50" height="50" relative="1" as="geometry">
            <mxPoint x="670" y="1570" as="sourcePoint" />
            <mxPoint x="760" y="1570" as="targetPoint" />
          </mxGeometry>
        </mxCell>
        <mxCell id="6maMMwceacY6JCe66Eoi-75" value="&lt;font style=&quot;vertical-align: inherit;&quot; dir=&quot;auto&quot;&gt;&lt;font style=&quot;vertical-align: inherit;&quot; dir=&quot;auto&quot;&gt;cada turma tem apenas um professor responsavel&lt;/font&gt;&lt;/font&gt;" style="text;html=1;align=center;verticalAlign=middle;resizable=0;points=[];autosize=1;strokeColor=none;fillColor=none;" vertex="1" parent="1">
          <mxGeometry x="575" y="1588" width="290" height="30" as="geometry" />
        </mxCell>
      </root>
    </mxGraphModel>
  </diagram>
</mxfile>
